/* XPM */
static char *c5e3c5e9d98d40e2d52e3ef23740f1f537KawCht6nZPp4Ne[] = {
/* columns rows colors chars-per-pixel */
"32 32 7 1 ",
"  c None",
". c #0C0816",
"X c #4C4138",
"o c #70503A",
"O c #746658",
"+ c #939388",
"@ c #CFB690",
/* pixels */
"                                ",
"                                ",
"             ..                 ",
"         ..  .X                 ",
"         .X. .X      .. ..      ",
"         ..X....     Xo.o.      ",
"          ...@@+..O  .o.o.      ",
"          .++@@@@@@...o..       ",
"        ..+++++@@@@@@..++.      ",
"       ..++++++++++@@+@@@+.     ",
"      ..+++++++++++++@@@@@+.    ",
"      .++++++++++++++@@@@@@.    ",
"     .++++++++++++++@@@@@@@+.   ",
"    ..++++++++++++++@@@@@@@@.   ",
"   ..++++++++++++++@@@@@@@@@+.  ",
"  ..+++++++++++++++@@@...@@@@.  ",
"  .+++OO+++++++O++@@@.XX.@@@@+. ",
" .++++OOOOOOOOO++O@@@.XX.@@@@@. ",
".OO++++OOOOOOO++O@@@@.oX.@@@@@+.",
".OOO++++OOOOOO++O@@@@.oo.@@@@@+.",
" .XOO+++OOOOO++O@@@@@.oo.+@@@+..",
"   .OO+++OOO++OO@@@@@.oo.+@+... ",
"    ..O+++++++O+@@@@@.XX.+...   ",
"      .O+++++OO@@@@@@. X...     ",
"       ..+++OOO@@@@@+.          ",
"         ..OOO+@@@@+.           ",
"          ...O+@@@+.            ",
"            ..+@+..             ",
"              ...               ",
"                                ",
"                                ",
"                                "
};
