/* XPM */
static char *_c4b1d7895c24fcc81261dd15fb064f4GWXPKiMeylRsx3mT[] = {
/* columns rows colors chars-per-pixel */
"64 64 10 1 ",
"  c None",
". c black",
"X c #420B0B",
"o c #54261C",
"O c #841515",
"+ c #AC3232",
"@ c #D95763",
"# c #D9A066",
"$ c #EEC39A",
"% c #F6DDC4",
/* pixels */
"                                                                ",
"                                                                ",
"                                                                ",
"                                                                ",
"                                                                ",
"                                                                ",
"                                                                ",
"                                                                ",
"                                                                ",
"                                                                ",
"                                                                ",
"                                                                ",
"                                                                ",
"                                                                ",
"                                                                ",
"                                                                ",
"                                                                ",
"                                                                ",
"                                                                ",
"                                                                ",
"                             XXXXXX                             ",
"                        XXXXX+%%%%%XXXXX                        ",
"                     XXX+++++++%%%++++++XXX                     ",
"                   XX+++++%%%+++++++++%%%++XX                   ",
"                  XO+++++%%%%%+++++++%%%%%+++X                  ",
"                 XOO++++++%%%+++++++++%%%+++++X                 ",
"                XOO+%%%+++++++++%%%+++++++++%%%X                ",
"                XO+%%%%%+++++++%%%%%+++++++%%%%X                ",
"               XOO++%%%+++++++++%%%+++++++++%%%+X               ",
"               XO+++++++++++++++++++++++++++++++X               ",
"              XOO++++++++++++++++++++++++++++++++X              ",
"              XOO++++++++++++++++++++++++++++++++X              ",
"              XOO++++++++++++++++++++++++++++++++X              ",
"              XOO+++++++++++++++++++++++++++++++OX              ",
"              XOOO+++++++++++++++++++++++++++++OOX              ",
"              XOOOOO+++++++++++++++++++++++++OOOOX              ",
"               XOOOOOOOOOOOOOOOOOOOOOOOOOOOOOOOOX               ",
"                XXXOOOOOOOOOOOOOOOOOOOOOOOOOOXXX                ",
"                   XXXXXXXXXXXXXXXXXXXXXXXXXX                   ",
"                       o################o                       ",
"                      o##$$$$$$$.$$$.$$$$o                      ",
"                      o#$$$$$$$$.$$$.$$$$o                      ",
"                      o#$$$$$$$$.$$$.$$$$o                      ",
"                     o#$$$$$$@@$$$$$$@@$$$o                     ",
"                     o#$$$$$$$$$$$$$$$$$$$o                     ",
"                     o#$$$$$$$$$$$$$$$$$$$o                     ",
"                     o#$$$$$$$$$$$$$$$$$$$o                     ",
"                     o#$$$$$$$$$$$$$$$$$$$o                     ",
"                      o#$$$$$$$$$$$$$$$$$o                      ",
"                      o#$$$$$$$$$$$$$$$$$o                      ",
"                       o#$$$$$$$$$$$$$$$o                       ",
"                        o$$$$$$$$$$$$$##o                       ",
"                        o$$$oooooooo###o                        ",
"                        o$$o       o##o                         ",
"                         oo         oo                          ",
"                                                                ",
"                                                                ",
"                                                                ",
"                                                                ",
"                                                                ",
"                                                                ",
"                                                                ",
"                                                                ",
"                                                                "
};
